<svg xmlns="http://www.w3.org/2000/svg" viewBox="0 0 32 32" fill="none">
    <!-- Military Shield Background -->
    <path 
        d="M16 2 L6 5 L6 13 C6 21 16 30 16 30 C16 30 26 21 26 13 L26 5 L16 2 Z" 
        fill="#7f1d1d" 
        stroke="#450a0a" 
        stroke-width="1"
    />
    
    <!-- Inner Shield -->
    <path 
        d="M16 4 L8 6.5 L8 13 C8 19.5 16 27 16 27 C16 27 24 19.5 24 13 L24 6.5 L16 4 Z" 
        fill="#991b1b"
    />
    
    <!-- Crossed Weapons -->
    <path 
        d="M11 9 L21 19 M21 9 L11 19" 
        stroke="#fef2f2" 
        stroke-width="2" 
        stroke-linecap="round"
    />
    
    <!-- Military Star -->
    <path 
        d="M16 8 L17 12 L21 12 L18 15 L19 19 L16 17 L13 19 L14 15 L11 12 L15 12 Z" 
        fill="#fef2f2"
    />
</svg>
